<svg height="512" viewBox="0 0 64 64" width="512" xmlns="http://www.w3.org/2000/svg"><g id="flat"><path d="m61 43v4h-58v-12l1-5a4.38 4.38 0 0 1 -1-3 3.132 3.132 0 0 1 3-3 3 3 0 0 1 0-6 3 3 0 0 1 -3-3.16 3.128 3.128 0 0 1 3.17-2.84h19.83a2.006 2.006 0 0 1 2 2v10l1.27 1.27 1.46 1.46 1.56 1.56 1.42 1.42 1.58 1.58.71.71.99.35c.5.17 1.16.4 1.93.66.58.2 1.21.42 1.89.65h.01l2.29.76c.63.21 1.27.42 1.91.62 1.03.33 2.05.65 3 .93.21.07.41.13.61.18.21.07.41.12.61.17.16.05.32.09.47.13.1.03.2.05.29.08a20.518 20.518 0 0 0 2 .47c3.88.65 6.5.89 7.87 2.32a5.017 5.017 0 0 1 1.13 3.68z" fill="#394d5c"/><path d="m50 36.53v10.47h-6a3.995 3.995 0 0 0 -4-4l-10-5-10-10v-16h6a2.006 2.006 0 0 1 2 2v10l1.27 1.27 1.46 1.46 1.56 1.56 1.42 1.42 1.58 1.58.71.71.99.35c.5.17 1.16.4 1.93.66.58.2 1.21.42 1.89.65h.01l2.29.76c.63.21 1.27.42 1.91.62 1.03.33 2.05.65 3 .93.21.07.41.13.61.18.21.07.41.12.61.17.16.05.32.09.47.13.1.03.2.05.29.08z" fill="#7d8d9c"/><path d="m3 47h58v5h-58z" fill="#cfdfe8"/><path d="m6 17h3v2h-3z" fill="#1e2e38"/><path d="m6 23h11v2h-11z" fill="#1e2e38"/><g fill="#f4f4e6"><path d="m23 15h5v2h-5z"/><path d="m23 19h5v2h-5z"/><path d="m23 23h5v2h-5z"/><path d="m30.73 26.73-5.22 3.13-1.02-1.72 4.78-2.87z"/><path d="m28.172 29.996h5.657v2.008h-5.657z" transform="matrix(.707 -.707 .707 .707 -12.841 31)"/><path d="m36.99 32.35-3.19 4.25-1.6-1.2 3.09-4.11.71.71z"/><path d="m40.81 33.66-1.88 4.71-1.86-.74 1.85-4.62c.58.2 1.21.42 1.89.65z"/><path d="m45.02 35.04-1.05 4.2-1.94-.48 1.08-4.34c.63.21 1.27.42 1.91.62z"/></g><path d="m59.87 39.32c-4 3.3-9.87 2.68-9.87 2.68v-5.47a20.518 20.518 0 0 0 2 .47c3.88.65 6.5.89 7.87 2.32z" fill="#1e2e38"/><path d="m3 35a28.617 28.617 0 0 0 13 12h-13z" fill="#7d8d9c"/><path d="m20 43h20l-10-5h-7l-8-8h-11l-1 5h9z" fill="#e1462b"/><path d="m11 17h2v2h-2z" fill="#1e2e38"/><path d="m15 17h2v2h-2z" fill="#1e2e38"/></g></svg>